{"title":"The.Bible.-.David.[1997].DvdRip.XviD-KnÃƒÂ£","uid":6408979,"size":2142992384,"categoryP":"video","categoryS":"movies","magnet":"?xt=urn:btih:e6943021b7a55beee3f474009c19e5d947444667&amp;dn=The.Bible.-.David.%5B1997%5D.DvdRip.XviD-Kn%C3%83%C2%A3&amp;tr=udp%3A%2F%2Ftracker.openbittorrent.com%3A80&amp;tr=udp%3A%2F%2Fopen.demonii.com%3A1337&amp;tr=udp%3A%2F%2Ftracker.coppersurfer.tk%3A6969&amp;tr=udp%3A%2F%2Fexodus.desync.com%3A6969","seeders":1,"leechers":0,"uploader":"Jon.Pson","files":1,"time":1305910448,"description":"The tribes of Israel need to defeat the superior might of the Philistines: &quot;Now appoint a king to lead us, such as all the other nations have.&quot; (I Samuel, 8:5). And so the prophet Samuel gives the Hebrews their first king, Saul, a simple farmer, who with God's help becomes a brave and mighty warlord who leads the united tribes of Israel against their enemies. Saul, however, has incessant doubts about his mission. Not trustful enough of divine wisdom, he acts of his own accord and thus sins against the Lord. The influential prophet Samuel turns away from Saul in order to select a new king according to God's will: David. He is still a young boy, tending sheep in the fields, when, secretly Samuel oints him as the next king of the Israelites. When David - as courageous as he is intelligent - emerges victorious from his encounter with Goliath, the Philistines' most powerful warrior, he becomes a hero. His fame arouses the jealousy of King Saul, who senses that David is going to dispute his right to be king - and tries to kill him. David flees from Saul, and finds many supporters and loyal companions who believe that he is destined to be king. In exile, David waits for his time to come, since he does not want to take the place of Saul by violence. He is young and in the prime of his strength, while King Saul is a broken man. When Saul falls upon his sword after losing a battle, David's hour is at hand. The new King David conquers Jerusalem. The magnificent city is to become the royal residence for the glorious hero, who now plans to leave the business of war to others in future and to become a King of Peace. However, this temperamental man, with so many years of battle behind him and still in the bloom of youth, is not predestined for a quiet, orderly life at all. Very soon he plunges into an illicit love affair with Bathsheba, a married woman - an affair that threatens to become the king's undoing when it turns out that she is expecting his child. To conceal his adulterous fatherhood, the king sends Bathsheba's husband Uriah - one of his best and most loyal soldiers - to his death, and then marries her. The prophet and royal adviser Nathan announces to David that his act will result in divine punishment: the Lord will not countenance such an outrage. Violence and evil will continue in David's own family and bring disaster upon the heads of the numerous sons born to David from his wives and concubines. Then the child of David and Bathsheba dies. She gives him another son, Solomon, but very soon David suffers another sharp blow of fate: his grown-up son Absalom kills one of his brothers for the latter's rape of his sister. David is far too mild in response to this: not only does he fail to bring the incestuous seducer to justice, he also leaves the fratricide unpunished. The king does not realise that he is gradually losing control over his family, and that his hold on the people is also growing weaker. For David is obsessed with his plan of building the finest and largest temple in the world in Jerusalem. He demands immense sums from the populace for this project, even though God has commanded him to leave the completion of the building to his successors. David's ambitious son Absalom thus finds it very easy to drum up support for a conspiracy against his father. After a fierce battle, culminating in Absalom's death, David makes it back to Jerusalem.\n\n\nGeneral\nComplete name                    : H:\\Movies\\The.Bible.-.David.[1997].DvdRip.XviD-KnÃƒÂ£\\The.Bible.-.David.[1997].DvdRip.XviD-KnÃƒÂ£.avi\nFormat                           : AVI\nFormat/Info                      : Audio Video Interleave\nFormat profile                   : OpenDML\nFile size                        : 2.00 GiB\nDuration                         : 3h 1mn\nOverall bit rate                 : 1 571 Kbps\nWriting application              : VirtualDubMod 1.5.4.1 (build 2178/release)\nWriting library                  : VirtualDubMod build 2178/release\n\nVideo\nID                               : 0\nFormat                           : MPEG-4 Visual\nFormat profile                   : Advanced Simple@L5\nFormat settings, BVOP            : Yes\nFormat settings, QPel            : No\nFormat settings, GMC             : No warppoints\nFormat settings, Matrix          : Custom\nCodec ID                         : XVID\nCodec ID/Hint                    : XviD\nDuration                         : 3h 1mn\nBit rate                         : 1 370 Kbps\nWidth                            : 592 pixels\nHeight                           : 448 pixels\nDisplay aspect ratio             : 4:3\nFrame rate                       : 23.976 fps\nColor space                      : YUV\nChroma subsampling               : 4:2:0\nBit depth                        : 8 bits\nScan type                        : Progressive\nBits/(Pixel*Frame)               : 0.215\nStream size                      : 1.74 GiB (87%)\nWriting library                  : XviD 1.2.1 (UTC 2008-12-04)\n\nAudio\nID                               : 1\nFormat                           : AC-3\nFormat/Info                      : Audio Coding 3\nMode extension                   : CM (complete main)\nCodec ID                         : 2000\nDuration                         : 3h 1mn\nBit rate mode                    : Constant\nBit rate                         : 192 Kbps\nChannel(s)                       : 2 channels\nChannel positions                : Front: L R\nSampling rate                    : 48.0 KHz\nBit depth                        : 16 bits\nStream size                      : 250 MiB (12%)\nAlignment                        : Split accross interleaves\nInterleave, duration             : 96 ms (2.30 video frames)\nInterleave, preload duration     : 96 ms\nLanguage                         : English\n\n","torrent":{"xt":"urn:btih:e6943021b7a55beee3f474009c19e5d947444667","amp;dn":"The.Bible.-.David.%5B1997%5D.DvdRip.XviD-Kn%C3%83%C2%A3","amp;tr":["udp%3A%2F%2Ftracker.openbittorrent.com%3A80","udp%3A%2F%2Fopen.demonii.com%3A1337","udp%3A%2F%2Ftracker.coppersurfer.tk%3A6969","udp%3A%2F%2Fexodus.desync.com%3A6969"],"infoHash":"e6943021b7a55beee3f474009c19e5d947444667","infoHashBuffer":{"type":"Buffer","data":[230,148,48,33,183,165,91,238,227,244,116,0,156,25,229,217,71,68,70,103]},"announce":[],"urlList":[]}}